<svg xmlns="http://www.w3.org/2000/svg" width="70" height="70" viewBox="0 0 70.000001 70.000001"><defs><clipPath id="a"><rect style="isolation:auto;mix-blend-mode:normal;marker:none" width="27" height="27" x="105" y="97.362" rx="3.013" ry="3.013" color="#000" overflow="visible" fill="#3f9cd0" stroke-linecap="round" stroke-linejoin="round"/></clipPath><clipPath id="b"><rect style="isolation:auto;mix-blend-mode:normal;marker:none" width="27" height="27" x="105" y="97.362" rx="3.013" ry="3.013" color="#000" overflow="visible" fill="#3f9cd0" stroke-linecap="round" stroke-linejoin="round"/></clipPath></defs><g transform="matrix(.43115 0 0 .42621 -27.518 -28.819)" color="#000" fill="none" stroke="#666" stroke-linecap="round" stroke-linejoin="round"><path d="m 130.47564,151.70963 c -0.28187,0 -0.89351,0.25348 -0.65855,1.07541 0.23495,0.82194 3.04013,1.46618 4.45888,1.66168 1.22109,0.16824 3.25893,-1.10637 3.8056,-1.46632 l 1.31206,0 c 0.36492,0 0.65879,-0.28326 0.65879,-0.63529 0,-0.352 -0.29387,-0.63548 -0.65879,-0.63548 z" style="isolation:auto;mix-blend-mode:normal;marker:none" overflow="visible" stroke-width="2.333"/><path style="isolation:auto;mix-blend-mode:normal;marker:none" d="M136.2546 159.72651l-15.28755 10.40494 1.34617 2.14002m18.11263-.16475c.24843-.0716.51171-.11061.78492-.11061l.15941 0-.54581-1.61994c1.78221.26402 3.01857.41711 5.16031.11944l-.92976 1.50296c.57478.0209 1.10297.21123 1.53187.52222l13.23853-18.34154 1.10669 2.51408c.0474.10805.17614.15825.28824.11224l1.42849-.58475c.112-.0458.16405-.16987.11642-.27802l-3.19415-7.2568c-.0358-.0813-.11689-.12943-.2024-.12943l-.00012-.00045c-.0286.00007-.0576.005-.0857.0186l-1.42844.58473c-.11201.0458-.16406.16987-.11642.27806l.52998 1.20397-10.96722 17.72799c-.91454.4035-2.70737 1.09008-4.33031 1.09008-1.37569 0-2.17964-.24793-2.60566-.44696l-4.95414-14.70285c-.32688.0969-.64496.15686-.92976.15244zM111.69036 152.87228l13.63485 0M164.57406 163.44578c-3.90147 1.91034-6.27982 5.8487-6.07765 10.06409.2923 5.91976 5.50517 10.49011 11.6432 10.20819 6.13798-.28192 10.87687-5.30928 10.58461-11.22897-.29219-5.91975-5.50496-10.49022-11.64299-10.20839-1.28813.0625-2.55514.3404-3.74451.82145M172.31809 158.3861c-.87631-.14965-1.76443-.22564-2.65436-.22703-1.53478.007-3.06002.23332-4.52497.67489-.50133.15197-.99424.32823-1.47686.52867m-.84932.39867c-5.69676 2.76697-9.03106 8.63946-8.3805 14.75999" overflow="visible" stroke-width="2.333"/><path style="isolation:auto;mix-blend-mode:normal;marker:none" d="m 113.96284,152.87228 0,4.47321 c 2.62127,4.7612 9.0899,13.41967 9.0899,13.41967 l 0,-17.89288" overflow="visible" stroke-width="2.333"/><path d="m 135.30265,174.7315 c 0.0593,-0.33418 0.10434,-0.67282 0.13431,-1.01586 m -19.33259,-10.92039 c -3.40598,2.22532 -5.4481,5.93316 -5.4528,9.90089 2e-5,6.61372 5.5592,11.97517 12.41667,11.97527 5.88448,2e-5 10.80909,-3.94933 12.08934,-9.24866 m -3.84069,-11.66721 c -1.85666,-1.59375 -4.2183,-2.66473 -6.85212,-2.95229 m 11.01537,12.08051 c 0.001,-0.0625 0.005,-0.12455 0.005,-0.18776 -0.002,-3.34115 -1.43232,-6.38748 -3.75741,-8.57196 m -7.63469,-3.35397 c -0.34071,-0.0302 -0.68251,-0.0465 -1.02462,-0.0493 -2.35689,0.001 -4.66511,0.6487 -6.65432,1.86791" style="isolation:auto;mix-blend-mode:normal;marker:none" overflow="visible" stroke-width="2.333"/><path d="M134.03792 174.48506c.0565-.32556.0978-.65618.12316-.99101m-17.43571-9.59934c-2.99191 2.00204-4.77867 5.28939-4.78381 8.80143-.00005 5.92643 4.98172 10.73078 11.1267 10.73082 5.25969.00003 9.66357-3.52093 10.82436-8.25141m-3.6079-10.64552c-1.6686-1.373-3.7687-2.28282-6.09771-2.50985m10.00695 10.7057c.00002-.009.00056-.0209.00056-.0297-.00014-3.05779-1.33428-5.83856-3.49212-7.80351m-6.89081-2.89127c-.24742-.0209-.4952-.0321-.74345-.036-2.14387.001-4.242.59846-6.04187 1.72181M114.56183 160.3517c-3.39276 2.17287-5.75333 5.55539-6.56362 9.40521m30.21807.40301c-.55901-3.08995-2.09446-5.83417-4.5088-8.15115-2.53325-2.25763-5.48809-3.63146-8.76067-4.01969m-.413-.0548c-.48708-.046-.97619-.069-1.46562-.0699-2.88158.007-5.70334.79382-8.14341 2.27245" style="isolation:auto;mix-blend-mode:normal;marker:none" overflow="visible" stroke-width="2.333"/><path transform="matrix(.22975 0 0 .2199 111.581 125.998)" d="m 60,222.3622 -3.636038,1.0227 -2.703708,2.63755 -3.660253,-0.93233 -3.660255,0.93233 L 43.636039,223.3849 40,222.3622 l -1.022704,-3.63604 -2.63755,-2.70371 0.932332,-3.66025 -0.932332,-3.66026 2.63755,-2.7037 L 40,202.3622 l 3.636038,-1.02271 2.703708,-2.63755 3.660253,0.93234 3.660255,-0.93234 2.703707,2.63755 L 60,202.3622 l 1.022704,3.63604 2.63755,2.7037 -0.932332,3.66026 0.932332,3.66025 -2.63755,2.70371 z" style="isolation:auto;mix-blend-mode:normal;marker:none" overflow="visible" stroke-width="10.379"/><ellipse ry="1.252" rx="1.273" cy="172.696" cx="123.068" style="isolation:auto;mix-blend-mode:normal;marker:none" overflow="visible" stroke-width="2.333"/><ellipse style="isolation:auto;mix-blend-mode:normal;marker:none" cx="141.89" cy="175.804" rx="2.11" ry="2.075" overflow="visible" stroke-width="2.333"/><path d="m 144,175.70309 6.54536,0" style="isolation:auto;mix-blend-mode:normal;marker:none" overflow="visible" stroke-width="2.333"/><g style="isolation:auto;mix-blend-mode:normal;marker:none" transform="matrix(.5092 0 0 .50116 83.19 32.44)" overflow="visible" fill-opacity=".984" stroke-width="4.618"><ellipse style="isolation:auto;mix-blend-mode:normal;marker:none" cx="78.316" cy="279.862" rx="21.963" ry="21.303" overflow="visible"/><ellipse ry="23.836" rx="24.331" cy="279.862" cx="78.316" style="isolation:auto;mix-blend-mode:normal;marker:none" overflow="visible"/></g><ellipse style="isolation:auto;mix-blend-mode:normal;marker:none" cx="169.611" cy="172.999" rx="1.273" ry="1.252" overflow="visible" stroke-width="2.333"/><path d="m 170,173.3622 -15.72057,-33.01204 11.59678,0" style="isolation:auto;mix-blend-mode:normal;marker:none" overflow="visible" stroke-width="2.333"/><g style="isolation:auto;mix-blend-mode:normal;marker:none" transform="matrix(.5092 0 0 .50116 129.733 32.744)" overflow="visible" fill-opacity=".984" stroke-width="4.618"><ellipse ry="21.303" rx="21.963" cy="279.862" cx="78.316" style="isolation:auto;mix-blend-mode:normal;marker:none" overflow="visible"/><ellipse style="isolation:auto;mix-blend-mode:normal;marker:none" cx="78.316" cy="279.862" rx="24.331" ry="23.836" overflow="visible"/></g><path d="M123 172.3622l18 3M140.86133 171.99609c-1.31372 0-2.3711 1.05738-2.3711 2.3711l0 1.36133c0 1.31371 1.05738 2.37109 2.3711 2.37109l4.05859 0A2.110199 2.0748303 0 0 1 147 176.36133a2.110199 2.0748303 0 0 1 .42969.0449c.0642-.21568.10937-.44066.10937-.67773l0-1.36133c0-1.31372-1.05737-2.3711-2.37109-2.3711l-4.30664 0z" style="isolation:auto;mix-blend-mode:normal;marker:none" overflow="visible" stroke-width="2.333"/></g></svg>