<svg xmlns="http://www.w3.org/2000/svg" width="70" height="70" viewBox="0 0 70.000001 70.000001"><defs><clipPath id="a"><rect style="isolation:auto;mix-blend-mode:normal;marker:none" width="27" height="27" x="105" y="97.362" rx="3.013" ry="3.013" color="#000" overflow="visible" fill="#3f9cd0" stroke-linecap="round" stroke-linejoin="round"/></clipPath><clipPath id="b"><rect style="isolation:auto;mix-blend-mode:normal;marker:none" width="27" height="27" x="105" y="97.362" rx="3.013" ry="3.013" color="#000" overflow="visible" fill="#3f9cd0" stroke-linecap="round" stroke-linejoin="round"/></clipPath><clipPath id="c"><path style="isolation:auto;mix-blend-mode:normal;marker:none" color="#000" overflow="visible" fill="#fff" stroke-width="2" stroke-linecap="round" stroke-linejoin="round" stroke-opacity=".984" d="M155 227.362H225V297.36199999999997H155z"/></clipPath><clipPath id="d"><path style="isolation:auto;mix-blend-mode:normal;marker:none" color="#000" overflow="visible" fill="#fff" stroke-width="2" stroke-linecap="round" stroke-linejoin="round" stroke-opacity=".984" d="M255 227.362H325V297.36199999999997H255z"/></clipPath></defs><g transform="translate(-155 -227.362)" clip-path="url(#c)"><g color="#000" fill="none" stroke="#666" stroke-linecap="round" stroke-linejoin="round"><path d="M222.28912 986.73106c-8.62456 2.44249-18.58733 4.15487-24.66944 5.79583l-4.43562-.18756-4.5014 1.35809 9.18107 3.26236c.72219.63831 16.97942 1.2502 24.99857.009 8.01914-1.24154 36.98529-9.60073 43.53175-11.69937 6.54646-2.09867 12.56481-6.0068 12.18153-7.38244-.38326-1.37565-2.29599-1.24525-3.84964-1.77545-.92686-.31624-3.60337-.9332-6.71653-.96822-.17689-.002-.35513-.002-.53459 0-1.25624.0134-2.56979.12672-3.85792.39564-1.67799.3502-12.51338 3.36739-25.82356 7.11262M257.46064 984.33396l21.10329-6.47592m-71.50466 19.7715l37.83029-9.98946" style="isolation:auto;mix-blend-mode:normal;marker:none" overflow="visible" transform="translate(-55 -725)"/><g style="isolation:auto;mix-blend-mode:normal;marker:none" overflow="visible" fill-opacity=".984" stroke-width="3.059"><path d="M-721.58789 1722.6489c-.26803 2.646 4.40384 2.2722 8.58279 6.4511 6.61043 3.0837 16.44279 5.4319 27.74943 2.4023 0 0 2.35352-3.9481 2.35333-8.8534-.00018-4.9053-2.35333-8.8534-2.35333-8.8534-11.63497-3.1176-21.34348-1.0018-27.74943 1.983-4.46961 4.4696-8.31476 4.2244-8.58279 6.8704zM-713.28012 1716.0464c-2.23602 3.4658-2.04514 9.2434 0 12.7857M-685.36358 1714.3287c-.84037 4.476-.69919 12.2744.0694 16.8492" style="isolation:auto;mix-blend-mode:normal;marker:none" overflow="visible" transform="matrix(.32072 -.08265 .08662 .31091 272.235 -332.476)"/></g><path style="isolation:auto;mix-blend-mode:normal;marker:none" d="M249.1396 983.63656c-19.08016-1.66434-31.01478-2.89993-31.01478-2.89993l-9.08094 1.31952 25.42186 8.04145M249.73535 990.22497c.49187.35084 1.66759-.10364 3.0457.66866 2.38725.41241 5.74446.32962 9.10835-1.5468 0 0 .40385-.9609.10973-2.36219M251.79889 989.68377c.21921.55015.48971.77986.87094 1.14903M261.04202 987.23874c.26006.85077.52076 1.40677.80644 2.01067M272.43094 976.07342l-.48218.10778.33325.91733 2.13217-.52526M214.28973 988.46153l-20.80058-11.90643-4.15469 1.29594 10.31021 14.01463" overflow="visible" transform="translate(-55 -725)"/><path d="m 209.19127,989.26467 -14.78893,-9.25152 -2.85753,0.88864" style="isolation:auto;mix-blend-mode:normal;marker:none" overflow="visible" transform="translate(-55 -725)"/><g transform="matrix(.8882 -.20116 .21684 .88205 -74.313 74.93)" stroke-width="1.1"><rect style="isolation:auto;mix-blend-mode:normal;marker:none" width="1.056" height="1.114" x="257.115" y="260.363" rx=".299" ry=".29" overflow="visible"/><rect ry=".29" rx=".299" y="260.644" x="254.284" height="1.114" width="1.056" style="isolation:auto;mix-blend-mode:normal;marker:none" overflow="visible"/><rect style="isolation:auto;mix-blend-mode:normal;marker:none" width="1.056" height="1.114" x="251.476" y="260.836" rx=".299" ry=".29" overflow="visible"/><rect ry=".29" rx=".299" y="261.012" x="248.672" height="1.114" width="1.056" style="isolation:auto;mix-blend-mode:normal;marker:none" overflow="visible"/></g><g transform="matrix(1.45243 -.30775 .33334 1.44273 -187.266 35.304)" stroke-width=".674"><rect ry=".178" rx=".184" y="201.131" x="198.796" height=".684" width=".648" style="isolation:auto;mix-blend-mode:normal;marker:none" overflow="visible"/><rect style="isolation:auto;mix-blend-mode:normal;marker:none" width=".648" height=".684" x="197.059" y="201.303" rx=".184" ry=".178" overflow="visible"/><rect ry=".178" rx=".184" y="201.421" x="195.337" height=".684" width=".648" style="isolation:auto;mix-blend-mode:normal;marker:none" overflow="visible"/><rect style="isolation:auto;mix-blend-mode:normal;marker:none" width=".648" height=".684" x="193.617" y="201.529" rx=".184" ry=".178" overflow="visible"/><rect ry=".178" rx=".184" y="201.674" x="191.888" height=".684" width=".648" style="isolation:auto;mix-blend-mode:normal;marker:none" overflow="visible"/><rect style="isolation:auto;mix-blend-mode:normal;marker:none" width=".648" height=".684" x="190.172" y="201.764" rx=".184" ry=".178" overflow="visible"/></g></g><path style="isolation:auto;mix-blend-mode:normal;marker:none" d="m 247.50195,992.36218 c -0.83161,0 -1.50195,0.67034 -1.50195,1.50195 l 0,16.99807 c 0,0.8316 0.67034,1.5 1.50195,1.5 l 45.34375,0 1.1543,-2 1.1543,2 5.59375,0 c 0.83161,0 1.50195,-0.6684 1.50195,-1.5 l 0,-16.99807 c 0,-0.83161 -0.67034,-1.50195 -1.50195,-1.50195 l -5.59375,0 -1.1543,2 -1.1543,-2 -45.34375,0 z" color="#000" overflow="visible" fill="#f9f9f9" fill-opacity=".984" stroke="#666" stroke-linecap="round" stroke-linejoin="round" transform="translate(-75 -725)"/><path style="isolation:auto;mix-blend-mode:normal;marker:none" d="M 293.98926,994.36218 294,1010.3622" color="#000" overflow="visible" fill="none" stroke="#666" stroke-linejoin="round" stroke-dasharray="4,1" stroke-dashoffset=".9" transform="translate(-75 -725)"/><g font-weight="700" font-size="5.797" font-family="Oswald" letter-spacing=".885" word-spacing="0" fill="#429ed1"><path d="M251 1007.0254l0-8.66322 3.35232 0 0 1.20322-1.72749 0 0 2.3584 1.22309 0 0 1.2321-1.22309 0 0 2.6663 1.72749 0 0 1.2032-3.35232 0zM255.22426 1004.133l0-2.8686c0-2.04703.95013-3.07053 2.50354-3.07053.32735 0 .61749.0482.87045.14451.25593.0929.47019.2229.64279.38986.1726.16684.31395.37216.42407.61597.11308.24392.19343.50864.24104.79419.0506.2855.0758.6.0758.9433l0 .746-1.59804 0 0-.7989c0-.1573-.003-.292-.01-.4043-.006-.1155-.0227-.2455-.049-.3899-.0238-.1476-.058-.26632-.10265-.3562-.0416-.0929-.10561-.17155-.19194-.23581-.0833-.0646-.18455-.0969-.30356-.0969-.47018 0-.8787.42671-.8787 1.28011l0 3.7395c0 .8504.40852 1.2755.8787 1.2755.13988 0 .25743-.043.35267-.1292.0953-.088.16368-.2092.20532-.3658.0416-.1605.0699-.316.0848-.4669.0149-.1539.0224-.3288.0224-.5246l0-.8904 1.58911 0 0 .7317c-.006.3305-.0316.6353-.0758.9144-.0447.2791-.1206.5503-.22766.8134-.10714.2631-.24403.486-.41067.6689-.16368.1798-.37646.324-.63833.4333-.26188.1123-.56245.1684-.9017.1684-.34818 0-.83108-.055-1.10189-.1633-.26783-.1056-.48954-.2482-.66512-.4282-.17259-.1831-.31544-.406-.42852-.6691-.11308-.2664-.19344-.5455-.24106-.8375-.0447-.292-.0671-.6127-.0671-.9624zM261 1004.1762l0-2.9118q0-3.07053 2.34796-3.07053 2.35243 0 2.35243 3.07053l0 2.8686q0 .5197-.0714.9624-.0714.438-.2455.8326-.16962.3947-.43745.6739-.26337.2743-.66957.433-.40622.1582-.92848.1582-.5178 0-.92401-.1582-.4062-.1547-.66957-.4187-.26338-.2695-.43746-.6543-.16962-.3899-.2455-.8279-.0714-.4379-.0714-.9578zm3.07556.3947l0-3.7445q0-1.28021-.7276-1.28021-.21874 0-.37049.12071-.15185.11561-.22319.32256-.0714.20194-.10265.40404-.0268.1974-.0268.4332l0 3.7445q0 1.2753.72315 1.2753.7276 0 .7276-1.2753zM267 1007.0254l0-8.66797 1.16953 0 1.7632 4.53367 0-4.53367 1.34808 0 0 8.66797-1.12489 0-1.75874-4.808 0 4.808-1.39718 0zM272.29958 1004.1762l0-2.9118q0-3.07053 2.34798-3.07053 2.35244 0 2.35244 3.07053l0 2.8686q0 .5197-.0714.9624-.0714.438-.2455.8326-.16963.3947-.43747.6739-.26335.2743-.66957.433-.40621.1582-.92846.1582-.51781 0-.92402-.1582-.40622-.1547-.66957-.4187-.26337-.2695-.43746-.6543-.16963-.3899-.2455-.8279-.0714-.4379-.0714-.9578zm3.07558.3947l0-3.7445q0-1.28021-.7276-1.28021-.21873 0-.37051.12071-.15169.11561-.22319.32256-.0714.20194-.10265.40404-.0268.1974-.0268.4332l0 3.7445q0 1.2753.72314 1.2753.72761 0 .72761-1.2753zM278.39345 1007.0254l0-8.66322 1.94621 0 .85707 5.77552.924-5.77552 1.87927 0 0 8.66322-1.1963 0-.0356-6.0931q-.13387.9386-.46869 3.0466-.33479 2.108-.4687 3.0465l-1.21417 0-.98649-6.1316-.0356 6.1316-1.20076 0zM286.21235 1007.0254l0-2.8637-1.50878-5.79952 1.53109 0 .74994 3.80702q.13829-.6256.41513-1.9011.27676-1.28025.41067-1.90592l1.48646 0-1.51324 5.79952 0 2.8637-1.57127 0z" style="line-height:150%;-inkscape-font-specification:'Oswald Bold'" transform="translate(-75 -725)"/></g></g><g transform="translate(-255 -227.362)" clip-path="url(#d)"><g color="#000" fill="none" stroke="#666" stroke-linecap="round" stroke-linejoin="round"><path style="isolation:auto;mix-blend-mode:normal;marker:none" d="M222.28912 986.73106c-8.62456 2.44249-18.58733 4.15487-24.66944 5.79583l-4.43562-.18756-4.5014 1.35809 9.18107 3.26236c.72219.63831 16.97942 1.2502 24.99857.009 8.01914-1.24154 36.98529-9.60073 43.53175-11.69937 6.54646-2.09867 12.56481-6.0068 12.18153-7.38244-.38326-1.37565-2.29599-1.24525-3.84964-1.77545-.92686-.31624-3.60337-.9332-6.71653-.96822-.17689-.002-.35513-.002-.53459 0-1.25624.0134-2.56979.12672-3.85792.39564-1.67799.3502-12.51338 3.36739-25.82356 7.11262M257.46064 984.33396l21.10329-6.47592m-71.50466 19.7715l37.83029-9.98946" overflow="visible" transform="translate(45 -725)"/><g style="isolation:auto;mix-blend-mode:normal;marker:none" overflow="visible" fill-opacity=".984" stroke-width="3.059"><path style="isolation:auto;mix-blend-mode:normal;marker:none" d="M-721.58789 1722.6489c-.26803 2.646 4.40384 2.2722 8.58279 6.4511 6.61043 3.0837 16.44279 5.4319 27.74943 2.4023 0 0 2.35352-3.9481 2.35333-8.8534-.00018-4.9053-2.35333-8.8534-2.35333-8.8534-11.63497-3.1176-21.34348-1.0018-27.74943 1.983-4.46961 4.4696-8.31476 4.2244-8.58279 6.8704zM-713.28012 1716.0464c-2.23602 3.4658-2.04514 9.2434 0 12.7857M-685.36358 1714.3287c-.84037 4.476-.69919 12.2744.0694 16.8492" overflow="visible" transform="matrix(.32072 -.08265 .08662 .31091 372.235 -332.476)"/></g><path d="M249.1396 983.63656c-19.08016-1.66434-31.01478-2.89993-31.01478-2.89993l-9.08094 1.31952 25.42186 8.04145M249.73535 990.22497c.49187.35084 1.66759-.10364 3.0457.66866 2.38725.41241 5.74446.32962 9.10835-1.5468 0 0 .40385-.9609.10973-2.36219M251.79889 989.68377c.21921.55015.48971.77986.87094 1.14903M261.04202 987.23874c.26006.85077.52076 1.40677.80644 2.01067M272.43094 976.07342l-.48218.10778.33325.91733 2.13217-.52526M214.28973 988.46153l-20.80058-11.90643-4.15469 1.29594 10.31021 14.01463" style="isolation:auto;mix-blend-mode:normal;marker:none" overflow="visible" transform="translate(45 -725)"/><path style="isolation:auto;mix-blend-mode:normal;marker:none" d="m 209.19127,989.26467 -14.78893,-9.25152 -2.85753,0.88864" overflow="visible" transform="translate(45 -725)"/><g transform="matrix(.8882 -.20116 .21684 .88205 25.687 74.93)" stroke-width="1.1"><rect ry=".29" rx=".299" y="260.363" x="257.115" height="1.114" width="1.056" style="isolation:auto;mix-blend-mode:normal;marker:none" overflow="visible"/><rect style="isolation:auto;mix-blend-mode:normal;marker:none" width="1.056" height="1.114" x="254.284" y="260.644" rx=".299" ry=".29" overflow="visible"/><rect ry=".29" rx=".299" y="260.836" x="251.476" height="1.114" width="1.056" style="isolation:auto;mix-blend-mode:normal;marker:none" overflow="visible"/><rect style="isolation:auto;mix-blend-mode:normal;marker:none" width="1.056" height="1.114" x="248.672" y="261.012" rx=".299" ry=".29" overflow="visible"/></g><g transform="matrix(1.45243 -.30775 .33334 1.44273 -87.266 35.304)" stroke-width=".674"><rect style="isolation:auto;mix-blend-mode:normal;marker:none" width=".648" height=".684" x="198.796" y="201.131" rx=".184" ry=".178" overflow="visible"/><rect ry=".178" rx=".184" y="201.303" x="197.059" height=".684" width=".648" style="isolation:auto;mix-blend-mode:normal;marker:none" overflow="visible"/><rect style="isolation:auto;mix-blend-mode:normal;marker:none" width=".648" height=".684" x="195.337" y="201.421" rx=".184" ry=".178" overflow="visible"/><rect ry=".178" rx=".184" y="201.529" x="193.617" height=".684" width=".648" style="isolation:auto;mix-blend-mode:normal;marker:none" overflow="visible"/><rect style="isolation:auto;mix-blend-mode:normal;marker:none" width=".648" height=".684" x="191.888" y="201.674" rx=".184" ry=".178" overflow="visible"/><rect ry=".178" rx=".184" y="201.764" x="190.172" height=".684" width=".648" style="isolation:auto;mix-blend-mode:normal;marker:none" overflow="visible"/></g></g><g color="#000"><path style="isolation:auto;mix-blend-mode:normal;marker:none" d="m 394.65625,992.36218 c -0.83161,0 -1.50195,0.67034 -1.50195,1.50195 l 0,16.99807 c 0,0.8316 0.67034,1.5 1.50195,1.5 l 45.34375,0 1.1543,-2 1.1543,2 5.59375,0 c 0.83161,0 1.50195,-0.6684 1.50195,-1.5 l 0,-16.99807 c 0,-0.83161 -0.67034,-1.50195 -1.50195,-1.50195 l -5.59375,0 -1.1543,2 -1.1543,-2 -45.34375,0 z" overflow="visible" fill="#666" fill-opacity=".984" transform="translate(-122.154 -725)"/><path style="isolation:auto;mix-blend-mode:normal;marker:none" d="m 441.14356,993.36212 0.0107,17.99998" overflow="visible" fill="none" stroke="#fff" stroke-linejoin="round" stroke-dasharray="4,1" stroke-dashoffset=".3" transform="translate(-122.154 -725)"/></g><g font-weight="700" font-size="5.797" font-family="Oswald" letter-spacing=".885" word-spacing="0" fill="#fff" fill-opacity=".984"><path d="M351.57403 1005.5732l.14701 0q.30714 0 .49749-.074.19032-.079.28985-.2658.0996-.1867.12982-.4198.0346-.2381.0346-.6344 0-.6576-.21628-1.0214-.21198-.3639-.72679-.3639l-.15574 0 0 2.78zm-.008-3.8949l.26824 0q.21629 0 .36335-.089.14702-.089.22065-.2565.0778-.1728.10828-.3685.0303-.196.0303-.4618 0-.2099-.0303-.3685-.0259-.15799-.0604-.26124-.0347-.1072-.11685-.17708-.0822-.073-.14701-.10719-.0604-.0388-.19036-.0502-.12555-.0182-.20332-.0182-.0779 0-.24226 0l0 2.16411zm-1.56603 5.0936l0-8.39597 1.60497 0q.4326 0 .76138.0502.33309.0457.6489.19122.32013.13966.52345.37777.20765.23789.32878.6297.12554.38728.12554.91878 0 .6578-.28983 1.0354-.28551.3778-.89117.597 1.38865.3639 1.38865 2.1176 0 1.2642-.56238 1.8707-.56238.6062-1.71743.6062l-1.92073 0zM356.00494 1003.6514l0-5.27547 1.57467 0 0 5.22407c0 .2986.001.5163.003.6531.002.1338.01.2986.0217.4945.0115.1927.0317.3279.0604.4056.0288.078.0677.1618.11686.2517.0519.09.1182.1494.19899.1773.0808.029.48385.043.59913.043.11536 0 .2134-.014.29415-.043.0808-.027.14574-.085.19466-.1724.052-.09.0923-.1743.12129-.2519.0288-.078.0488-.2115.0604-.4011.0115-.1928.0187-.3545.0216-.4852.002-.1336.003-.3482.003-.6437l0-.028 0-5.22391 1.57467 0 0 5.27551c0 .2674-.008.5099-.0217.7275-.0144.2177-.0419.4432-.0821.6763-.0403.2332-.0951.4399-.16437.6202-.0692.1774-.16152.3484-.27688.5131-.11536.1619-.25235.2956-.41096.4014-.15575.1053-.34465.1892-.56672.2516-.22207.062-.47153.093-.74841.093-.27686 0-.83126-.031-1.05332-.093-.22207-.062-.41099-.146-.56673-.2516-.15574-.1052-.29128-.2393-.40665-.4014-.11536-.1647-.20764-.3357-.27685-.5131-.0692-.1803-.12545-.387-.16871-.6202-.0403-.2331-.0677-.4586-.0821-.6763-.0144-.2176-.0217-.4601-.0217-.7275zM361.93723 1004.3696l1.5963-.3312q0 .2566.008.4526.008.1957.0431.4288.0389.2289.0995.3779.0649.1451.17736.2474.11686.095.27253.095.46722 0 .46722-.6437 0-.8816-.92142-1.7539l-.48885-.4476q-.23362-.21-.37204-.3498-.13849-.1399-.32878-.3778-.18604-.2378-.2942-.4571-.10361-.2237-.18167-.5364-.0734-.3125-.0734-.6623 0-1.02151.60132-1.61402.60132-.59694 1.59631-.59694.82627 0 1.40595.63448.57967.63426.57967 1.52998l-.003.062q0 .062 0 .1398l-1.62656.2425q0-.051.003-.1581.008-.1119.008-.1818 0-.168-.0217-.3221-.0217-.15333-.0733-.30781-.0474-.15323-.15144-.24258-.10383-.0935-.2509-.0935-.25956 0-.38935.21895-.12984.2194-.12984.51794 0 .2612.0734.4897.0779.2285.2293.4291.15572.1958.28551.3264.12983.1298.34606.3219.21631.1865.30714.2751.33312.3173.5624.5974.22928.275.43261.6248.20333.3497.30283.7556.10383.4058.10383.8769 0 .8816-.58401 1.4458-.58403.5597-1.41893.5597-.54075 0-.96038-.2145-.41962-.2145-.67919-.5832-.25524-.3682-.39365-.816-.13848-.4478-.16008-.9609zM367.42573 1006.7582l0-8.39602 1.57467 0 0 8.39602-1.57467 0zM370.61469 1006.7719l0-8.40053 1.13344 0 1.70878 4.39373 0-4.39373 1.30647 0 0 8.40053-1.09018 0-1.70445-4.6596 0 4.6596-1.35406 0zM376.03951 1006.7719l0-8.39597 3.24883 0 0 1.16607-1.67416 0 0 2.2857 1.18532 0 0 1.194-1.18532 0 0 2.5841 1.67416 0 0 1.1661-3.24883 0zM380.38161 1004.3696l1.59631-.3312q0 .2566.008.4526.008.1957.0432.4288.0387.2289.0994.3779.0649.1451.17739.2474.11685.095.27253.095.46721 0 .46721-.6437 0-.8816-.92146-1.7539l-.48883-.4476q-.23361-.21-.37203-.3498-.13846-.1399-.32878-.3778-.18603-.2378-.29419-.4571-.10383-.2237-.18166-.5364-.0733-.3125-.0733-.6623 0-1.02151.60133-1.61402.60129-.59694 1.59629-.59694.82626 0 1.40593.63448.57969.63426.57969 1.52998l-.003.062q0 .062 0 .1398l-1.62659.2425q0-.051.003-.1581.008-.1119.008-.1818 0-.168-.0217-.3221-.0217-.15333-.0733-.30781-.0474-.15323-.15143-.24258-.10372-.0935-.25093-.0935-.25953 0-.38934.21895-.12983.2194-.12983.51794 0 .2612.0734.4897.0778.2285.22928.4291.15573.1958.28552.3264.12984.1298.34609.3219.21629.1865.30712.2751.33312.3173.56242.5974.22925.275.43259.6248.20329.3497.30282.7556.10383.4058.10383.8769 0 .8816-.58403 1.4458-.584.5597-1.41891.5597-.54076 0-.9604-.2145-.41962-.2145-.67917-.5832-.25525-.3682-.39369-.816-.13847-.4478-.16006-.9609zM385.80657 1004.3696l1.5963-.3312q0 .2566.008.4526.008.1957.0432.4288.0389.2289.0993.3779.0649.1451.17737.2474.11685.095.27253.095.46723 0 .46723-.6437 0-.8816-.92144-1.7539l-.48885-.4476q-.23359-.21-.37202-.3498-.13851-.1399-.32877-.3778-.18604-.2378-.29418-.4571-.10383-.2237-.18171-.5364-.0733-.3125-.0733-.6623 0-1.02151.60131-1.61402.60133-.59694 1.59629-.59694.82627 0 1.40596.63448.57968.63426.57968 1.52998l-.003.062q0 .062 0 .1398l-1.62661.2425q0-.051.003-.1581.008-.1119.008-.1818 0-.168-.0217-.3221-.0217-.15333-.0733-.30781-.0475-.15323-.15145-.24258-.10361-.0935-.2509-.0935-.25956 0-.38934.21895-.12982.2194-.12982.51794 0 .2612.0733.4897.0779.2285.22926.4291.15575.1958.28552.3264.12983.1298.3461.3219.21628.1865.30713.2751.33311.3173.56238.5974.22927.275.4326.6248.20333.3497.30283.7556.10383.4058.10383.8769 0 .8816-.58401 1.4458-.584.5597-1.41892.5597-.54076 0-.9604-.2145-.4196-.2145-.67914-.5832-.25526-.3682-.39369-.816-.1385-.4478-.16007-.9609z" style="line-height:150%;-inkscape-font-specification:'Oswald Bold'" transform="translate(-75 -725)"/></g></g></svg>