<svg xmlns="http://www.w3.org/2000/svg" width="70" height="70" viewBox="0 0 70.000001 70.000001"><defs><clipPath id="a"><rect style="isolation:auto;mix-blend-mode:normal;marker:none" width="27" height="27" x="105" y="97.362" rx="3.013" ry="3.013" color="#000" overflow="visible" fill="#3f9cd0" stroke-linecap="round" stroke-linejoin="round"/></clipPath><clipPath id="b"><rect style="isolation:auto;mix-blend-mode:normal;marker:none" width="27" height="27" x="105" y="97.362" rx="3.013" ry="3.013" color="#000" overflow="visible" fill="#3f9cd0" stroke-linecap="round" stroke-linejoin="round"/></clipPath></defs><g color="#000"><rect style="isolation:auto;mix-blend-mode:normal;marker:none" width="27" height="27" x="41" y="2" rx="3.013" ry="3.013" overflow="visible" fill="#666"/><ellipse style="isolation:auto;mix-blend-mode:normal;marker:none" cx="54.5" cy="15.5" rx="9.5" ry="9.5" overflow="visible" fill="#fff" fill-opacity=".984"/><path d="m 51.514134,15.992622 3.01831,0 -1.525384,5.09543 4.478785,-6.42609 -2.985852,-0.0649 1.624032,-4.6850905 z" style="isolation:auto;mix-blend-mode:normal;marker:none" overflow="visible" fill="#666" stroke="#666" stroke-width=".824" stroke-linecap="round" stroke-linejoin="round"/></g><g transform="translate(-15 -12.362)" color="#000" stroke="#666" stroke-linecap="round" stroke-linejoin="round"><path style="isolation:auto;mix-blend-mode:normal;marker:none" d="m 80.999999,58.362192 0,0 3,-1 0,-6 -1,-1 c 0,0 0.87915,-5.48052 -1.52972,-6.41202 -0.98015,-0.37903 -14.1387,-2.277 -14.1387,-2.277 0,0 -8.30366,-7.31167 -12.33158,-7.31098 l -24.97504,0.004 c -1.08481,1.9e-4 -1.90968,0.22023 -2.3865,0.37224 -3.24665,1.03526 -9.63846,7.62376 -9.63846,7.62376 l 0,9 -2,1 0,3 3,2 2,0 m 16,1 28,0" overflow="visible" fill="#fff" fill-opacity=".984"/><path style="isolation:auto;mix-blend-mode:normal;marker:none" d="M30.999999 36.362192c-.52424.29911-3.78042 3.35567-3.78042 3.35567-.95253.96136-.40995 1.08312 1.01804 1.449.76238.19533 3.93888 1.19533 9.76238 1.19533l24 0c0 0-1.23368-6.10964-8-6zM15.999999 53.362192l5 0M36.999999 54.362192l28 0M80.999999 46.362192l-3 0c0 0 .65371 3.84618 1.53284 3.52913l1.46716-.52913M45.999999 36.362192l0 4M32.999999 36.362192l0 4M17.999999 49.362192l3 0 0-4-3 0" overflow="visible" fill="none"/><circle r="6.583" style="isolation:auto;mix-blend-mode:normal;marker:none" cx="29" cy="55.945" overflow="visible" fill="#fff" fill-opacity=".984"/><circle r="4.583" cy="55.945" cx="29" style="isolation:auto;mix-blend-mode:normal;marker:none" overflow="visible" fill="none"/><path style="isolation:auto;mix-blend-mode:normal;marker:none" d="m 18.257389,47.399612 2.74261,-0.03742" overflow="visible" fill="none"/><circle cy="55.945" cx="72.583" style="isolation:auto;mix-blend-mode:normal;marker:none" r="6.583" overflow="visible" fill="#fff" fill-opacity=".984"/><circle style="isolation:auto;mix-blend-mode:normal;marker:none" cx="72.583" cy="55.945" r="4.583" overflow="visible" fill="none"/></g></svg>