<svg xmlns="http://www.w3.org/2000/svg" width="70" height="70" viewBox="0 0 70.000001 70.000001"><defs><clipPath id="a"><rect style="isolation:auto;mix-blend-mode:normal;marker:none" width="27" height="27" x="105" y="97.362" rx="3.013" ry="3.013" color="#000" overflow="visible" fill="#3f9cd0" stroke-linecap="round" stroke-linejoin="round"/></clipPath><clipPath id="b"><rect style="isolation:auto;mix-blend-mode:normal;marker:none" width="27" height="27" x="105" y="97.362" rx="3.013" ry="3.013" color="#000" overflow="visible" fill="#3f9cd0" stroke-linecap="round" stroke-linejoin="round"/></clipPath></defs><g color="#000"><rect ry="3.013" rx="3.013" y="2" x="41" height="27" width="27" style="isolation:auto;mix-blend-mode:normal;marker:none" overflow="visible" fill="#666"/><g transform="translate(-64 -95.362)" clip-path="url(#b)"><ellipse style="isolation:auto;mix-blend-mode:normal;marker:none" cx="127" cy="111.862" rx="9.5" ry="9.5" overflow="visible" fill="#fff" fill-opacity=".984"/><path style="isolation:auto;mix-blend-mode:normal;marker:none" d="m 103.5,113.32109 c 0,7.43393 6.30757,8.04111 8.5,8.04111 2.22925,0 8.5,-0.56378 8.5,-8.04111 0,-5.95889 -8.5,-13.95888 -8.5,-13.95888 0,0 -8.5,7.99999 -8.5,13.95888 z" overflow="visible" fill="#fff"/><path style="line-height:125%;-inkscape-font-specification:'lato Light';isolation:auto;mix-blend-mode:normal;marker:none" d="m 116.5602,111.87303 c 0,0.76477 -0.11425,1.4526 -0.34275,2.0635 -0.2285,0.61089 -0.55027,1.13085 -0.9653,1.55986 -0.41503,0.42902 -0.91401,0.75778 -1.49691,0.98629 -0.57825,0.2285 -1.21711,0.34275 -1.91661,0.34275 l -2.89163,0 0,-9.8978 2.89163,0 c 0.6995,0 1.33836,0.11424 1.91661,0.34274 0.5829,0.22851 1.08188,0.55727 1.49691,0.98629 0.41503,0.42901 0.7368,0.94897 0.9653,1.55986 0.2285,0.61089 0.34275,1.29639 0.34275,2.05651 z" font-weight="300" font-family="lato" letter-spacing="0" word-spacing="0" overflow="visible" fill="none" stroke="#666" stroke-width="1.894" stroke-linecap="round" stroke-linejoin="round"/><path d="m 124.01414,112.35482 3.01831,0 -1.52539,5.09543 4.47879,-6.42609 -2.98585,-0.0649 1.62403,-4.68509 z" style="isolation:auto;mix-blend-mode:normal;marker:none" overflow="visible" fill="#666" stroke="#666" stroke-width=".824" stroke-linecap="round" stroke-linejoin="round"/></g></g><g transform="translate(-15 -12.362)" color="#000" stroke="#666" stroke-linecap="round" stroke-linejoin="round"><path style="isolation:auto;mix-blend-mode:normal;marker:none" d="m 80.999999,58.362192 0,0 3,-1 0,-6 -1,-1 c 0,0 0.87915,-5.48052 -1.52972,-6.41202 -0.98015,-0.37903 -14.1387,-2.277 -14.1387,-2.277 0,0 -8.30366,-7.31167 -12.33158,-7.31098 l -24.97504,0.004 c -1.08481,1.9e-4 -1.90968,0.22023 -2.3865,0.37224 -3.24665,1.03526 -9.63846,7.62376 -9.63846,7.62376 l 0,9 -2,1 0,3 3,2 2,0 m 16,1 28,0" overflow="visible" fill="#fff" fill-opacity=".984"/><path style="isolation:auto;mix-blend-mode:normal;marker:none" d="M30.999999 36.362192c-.52424.29911-3.78042 3.35567-3.78042 3.35567-.95253.96136-.40995 1.08312 1.01804 1.449.76238.19533 3.93888 1.19533 9.76238 1.19533l24 0c0 0-1.23368-6.10964-8-6zM15.999999 53.362192l5 0M36.999999 54.362192l28 0M80.999999 46.362192l-3 0c0 0 .65371 3.84618 1.53284 3.52913l1.46716-.52913M45.999999 36.362192l0 4M32.999999 36.362192l0 4M17.999999 49.362192l3 0 0-4-3 0" overflow="visible" fill="none"/><circle r="6.583" style="isolation:auto;mix-blend-mode:normal;marker:none" cx="29" cy="55.945" overflow="visible" fill="#fff" fill-opacity=".984"/><circle r="4.583" cy="55.945" cx="29" style="isolation:auto;mix-blend-mode:normal;marker:none" overflow="visible" fill="none"/><path style="isolation:auto;mix-blend-mode:normal;marker:none" d="m 18.257389,47.399612 2.74261,-0.03742" overflow="visible" fill="none"/><circle cy="55.945" cx="72.583" style="isolation:auto;mix-blend-mode:normal;marker:none" r="6.583" overflow="visible" fill="#fff" fill-opacity=".984"/><circle style="isolation:auto;mix-blend-mode:normal;marker:none" cx="72.583" cy="55.945" r="4.583" overflow="visible" fill="none"/></g></svg>