<svg xmlns="http://www.w3.org/2000/svg" width="70" height="70" viewBox="0 0 70.000001 70.000001"><defs><clipPath id="a"><rect style="isolation:auto;mix-blend-mode:normal;marker:none" width="27" height="27" x="105" y="97.362" rx="3.013" ry="3.013" color="#000" overflow="visible" fill="#3f9cd0" stroke-linecap="round" stroke-linejoin="round"/></clipPath><clipPath id="b"><rect style="isolation:auto;mix-blend-mode:normal;marker:none" width="27" height="27" x="105" y="97.362" rx="3.013" ry="3.013" color="#000" overflow="visible" fill="#3f9cd0" stroke-linecap="round" stroke-linejoin="round"/></clipPath></defs><g transform="translate(-4 -95.362)" color="#000"><rect style="isolation:auto;mix-blend-mode:normal;marker:none" width="27" height="27" x="45" y="97.362" rx="3.013" ry="3.013" overflow="visible" fill="#666"/><path style="isolation:auto;mix-blend-mode:normal;marker:none" d="m 49.999989,113.82108 c 0,7.43393 6.307571,8.04111 8.499996,8.04111 2.229246,0 8.500004,-0.56378 8.500004,-8.04111 0,-5.95889 -8.5,-13.95889 -8.5,-13.95889 0,0 -8.5,8 -8.5,13.95889 z" overflow="visible" fill="#fff"/><path style="-inkscape-font-specification:'lato Light';isolation:auto;mix-blend-mode:normal;marker:none" d="m 419.1207,142.32217 2.88135,0 0,3.7162 0,0 -2e-5,-1.1e-4 c -0.52209,0.3694 -1.07866,0.65261 -1.66971,0.84963 -0.59104,0.19701 -1.25596,0.29552 -1.99477,0.29552 -0.82747,0 -1.5712,-0.1256 -2.2312,-0.37679 -0.66,-0.25612 -1.22396,-0.61567 -1.69187,-1.07866 -0.46299,-0.46791 -0.82008,-1.03187 -1.07127,-1.69187 -0.24627,-0.66 -0.3694,-1.39388 -0.3694,-2.20164 0,-0.80776 0.12067,-1.53918 0.36201,-2.19426 0.24627,-0.66 0.59598,-1.22149 1.04911,-1.68448 0.45806,-0.46791 1.0097,-0.82746 1.65493,-1.07865 0.64522,-0.25612 1.37171,-0.38418 2.17948,-0.38418 0.39895,0 0.76589,0.0271 1.10082,0.0813 0.33985,0.0542 0.65508,0.13547 0.94567,0.2438 0.2906,0.10343 0.5615,0.23396 0.81269,0.39157 0.25119,0.15269 0.49254,0.33 0.72403,0.53194" overflow="visible" transform="matrix(.94678 0 0 .94678 -337.187 -20.987)" font-weight="300" font-size="14.776" font-family="lato" letter-spacing="0" word-spacing="0" fill="none" fill-opacity=".984" stroke="#666" stroke-width="2" stroke-linecap="round" stroke-linejoin="round"/></g><g transform="translate(-165 -12.362)" color="#000" stroke="#666" stroke-linecap="round" stroke-linejoin="round"><path style="isolation:auto;mix-blend-mode:normal;marker:none" d="m 212.47001,58.373792 -26.70177,0 M 174,58.362205 l -1,-1 0,-5 c 0,-0.81768 0.73511,-1.242123 0.73511,-1.242123 l 0.22447,-3.89497 6.84592,-5.56426 c 0,0 13.10367,-0.79813 18.16249,-0.42655 5.05881,0.37158 13.82258,5.76824 13.82258,5.76824 0,0 13.16109,2.59555 13.98706,3.74255 0.82597,1.14699 0.89763,2.09358 0.89763,2.09358 1.29183,0 0.49827,5.31489 0,5.40366 l -3.78809,0.6749" overflow="visible" fill="none"/><path style="isolation:auto;mix-blend-mode:normal;marker:none" d="M174.74695 46.815982l1.01133.5825-.34691 3.35546-1.24-.0228M227.70536 52.842892l-2.40461-.0305-.64067-1.05183c0 0 .63555-.25659.99221-.25659M184.27117 43.581072c0 0 6.98401-.5817 13.08022.0578 6.09622.63949 13.08904 4.30266 13.08904 4.30266 0 0 .99448.98284-.60067.87203l-27.96008-1.94228c-.89328-.062-.4731-1.2551.76981-2.35967 1.28016-1.13766 1.62168-.93052 1.62168-.93053zM192.94678 43.466972l.42074 2.49886M228 56.362192l-3 0m-13.68659.10758l-24.63789 0" overflow="visible" fill="none"/><circle r="4.5" style="isolation:auto;mix-blend-mode:normal;marker:none" cx="179.866" cy="57.862" overflow="visible" fill="#fff" fill-opacity=".984"/><ellipse cy="57.862" cx="179.866" style="isolation:auto;mix-blend-mode:normal;marker:none" rx="2.793" ry="2.793" overflow="visible" fill="none"/><circle r="4.5" cy="57.862" cx="217.988" style="isolation:auto;mix-blend-mode:normal;marker:none" overflow="visible" fill="#fff" fill-opacity=".984"/><ellipse ry="2.793" rx="2.793" style="isolation:auto;mix-blend-mode:normal;marker:none" cx="217.988" cy="57.862" overflow="visible" fill="none"/></g></svg>