<svg xmlns="http://www.w3.org/2000/svg" width="70" height="70" viewBox="0 0 70.000001 70.000001"><defs><clipPath id="a"><rect style="isolation:auto;mix-blend-mode:normal;marker:none" width="27" height="27" x="105" y="97.362" rx="3.013" ry="3.013" color="#000" overflow="visible" fill="#3f9cd0" stroke-linecap="round" stroke-linejoin="round"/></clipPath><clipPath id="b"><rect style="isolation:auto;mix-blend-mode:normal;marker:none" width="27" height="27" x="105" y="97.362" rx="3.013" ry="3.013" color="#000" overflow="visible" fill="#3f9cd0" stroke-linecap="round" stroke-linejoin="round"/></clipPath></defs><g color="#000"><rect style="isolation:auto;mix-blend-mode:normal;marker:none" width="27" height="27" x="41" y="2" rx="3.013" ry="3.013" overflow="visible" fill="#666"/><ellipse style="isolation:auto;mix-blend-mode:normal;marker:none" cx="54.5" cy="15.5" rx="9.5" ry="9.5" overflow="visible" fill="#fff" fill-opacity=".984"/><path d="m 51.514134,15.992622 3.01831,0 -1.525384,5.09543 4.478785,-6.42609 -2.985852,-0.0649 1.624032,-4.6850905 z" style="isolation:auto;mix-blend-mode:normal;marker:none" overflow="visible" fill="#666" stroke="#666" stroke-width=".824" stroke-linecap="round" stroke-linejoin="round"/></g><g transform="translate(-165 -12.362)" color="#000" stroke="#666" stroke-linecap="round" stroke-linejoin="round"><path style="isolation:auto;mix-blend-mode:normal;marker:none" d="m 212.47001,58.373792 -26.70177,0 M 174,58.362205 l -1,-1 0,-5 c 0,-0.81768 0.73511,-1.242123 0.73511,-1.242123 l 0.22447,-3.89497 6.84592,-5.56426 c 0,0 13.10367,-0.79813 18.16249,-0.42655 5.05881,0.37158 13.82258,5.76824 13.82258,5.76824 0,0 13.16109,2.59555 13.98706,3.74255 0.82597,1.14699 0.89763,2.09358 0.89763,2.09358 1.29183,0 0.49827,5.31489 0,5.40366 l -3.78809,0.6749" overflow="visible" fill="none"/><path style="isolation:auto;mix-blend-mode:normal;marker:none" d="M174.74695 46.815982l1.01133.5825-.34691 3.35546-1.24-.0228M227.70536 52.842892l-2.40461-.0305-.64067-1.05183c0 0 .63555-.25659.99221-.25659M184.27117 43.581072c0 0 6.98401-.5817 13.08022.0578 6.09622.63949 13.08904 4.30266 13.08904 4.30266 0 0 .99448.98284-.60067.87203l-27.96008-1.94228c-.89328-.062-.4731-1.2551.76981-2.35967 1.28016-1.13766 1.62168-.93052 1.62168-.93053zM192.94678 43.466972l.42074 2.49886M228 56.362192l-3 0m-13.68659.10758l-24.63789 0" overflow="visible" fill="none"/><circle r="4.5" style="isolation:auto;mix-blend-mode:normal;marker:none" cx="179.866" cy="57.862" overflow="visible" fill="#fff" fill-opacity=".984"/><ellipse cy="57.862" cx="179.866" style="isolation:auto;mix-blend-mode:normal;marker:none" rx="2.793" ry="2.793" overflow="visible" fill="none"/><circle r="4.5" cy="57.862" cx="217.988" style="isolation:auto;mix-blend-mode:normal;marker:none" overflow="visible" fill="#fff" fill-opacity=".984"/><ellipse ry="2.793" rx="2.793" style="isolation:auto;mix-blend-mode:normal;marker:none" cx="217.988" cy="57.862" overflow="visible" fill="none"/></g></svg>