<svg xmlns="http://www.w3.org/2000/svg" width="70" height="70" viewBox="0 0 70.000001 70.000001"><defs><clipPath id="a"><rect style="isolation:auto;mix-blend-mode:normal;marker:none" width="27" height="27" x="105" y="97.362" rx="3.013" ry="3.013" color="#000" overflow="visible" fill="#3f9cd0" stroke-linecap="round" stroke-linejoin="round"/></clipPath><clipPath id="b"><rect style="isolation:auto;mix-blend-mode:normal;marker:none" width="27" height="27" x="105" y="97.362" rx="3.013" ry="3.013" color="#000" overflow="visible" fill="#3f9cd0" stroke-linecap="round" stroke-linejoin="round"/></clipPath></defs><g color="#000"><rect style="isolation:auto;mix-blend-mode:normal;marker:none" width="27" height="27" x="41" y="2" rx="3.013" ry="3.013" overflow="visible" fill="#666"/><ellipse style="isolation:auto;mix-blend-mode:normal;marker:none" cx="54.5" cy="15.5" rx="9.5" ry="9.5" overflow="visible" fill="#fff" fill-opacity=".984"/><path d="m 51.514134,15.992622 3.01831,0 -1.525384,5.09543 4.478785,-6.42609 -2.985852,-0.0649 1.624032,-4.6850905 z" style="isolation:auto;mix-blend-mode:normal;marker:none" overflow="visible" fill="#666" stroke="#666" stroke-width=".824" stroke-linecap="round" stroke-linejoin="round"/></g><g color="#000" stroke="#666" stroke-linecap="round" stroke-linejoin="round"><path d="m 328.15206,58.457894 c -1.78806,-0.02219 -2.91922,-0.05335 -3.15206,-0.0957 0,0 -2.06341,-1.21611 -2.06341,-3.10805 0,-1.89195 0.3652,-1.86076 1.06341,-1.89195 0,-7.90657 1.46286,-18 4,-18 2.53711,0 24.58499,0.25973 28.15948,1.20045 4.0051,1.05404 16.28887,8.87054 16.28887,8.87054 0,0 9.70134,2.96853 10.61188,3.48486 1.1872,0.6732 2.49978,3.56405 2.49978,3.56405 1.63996,-0.0745 1.43999,1.60266 1.43999,2.8801 0,1.10806 -3,3 -3,3 l -3,0 m -12,1.1e-5 -29,0" style="isolation:auto;mix-blend-mode:normal;marker:none" overflow="visible" fill="#fff" fill-opacity=".984" transform="translate(-320 -12.362)"/><path d="M351 38.362192l1 8 16 1c2.21179.13824-7-7.19615-10-8-3-.80384-7-1-7-1zM323 55.362192l5.45721 0m11.54279 0l28.99167 0m11.95045 0l5.61062 0M379 49.362205c0 1 2.05026 2.531764 2.77001 2.723894.71977.1921 3.43379-.0792 3.43379-.0792M324.42503 46.304602c0 0 1.42541-.490667 1.57497.0576.1525.55892.27416 4.641023 0 5.000003M363 42.362205l0 3" style="isolation:auto;mix-blend-mode:normal;marker:none" overflow="visible" fill="none" transform="translate(-320 -12.362)"/><g transform="translate(-257.887 -22.36)"><circle style="isolation:auto;mix-blend-mode:normal;marker:none" cx="312.988" cy="67.862" r="4.5" overflow="visible" fill="#fff" fill-opacity=".984"/><ellipse cy="67.862" cx="312.988" style="isolation:auto;mix-blend-mode:normal;marker:none" rx="2.793" ry="2.793" overflow="visible" fill="none"/></g><g transform="translate(-299.114 -22.36)"><circle r="4.5" cy="67.862" cx="312.988" style="isolation:auto;mix-blend-mode:normal;marker:none" overflow="visible" fill="#fff" fill-opacity=".984"/><ellipse ry="2.793" rx="2.793" style="isolation:auto;mix-blend-mode:normal;marker:none" cx="312.988" cy="67.862" overflow="visible" fill="none"/></g></g></svg>