<svg xmlns="http://www.w3.org/2000/svg" width="70" height="70" viewBox="0 0 70.000001 70.000001"><defs><clipPath id="a"><rect style="isolation:auto;mix-blend-mode:normal;marker:none" width="27" height="27" x="105" y="97.362" rx="3.013" ry="3.013" color="#000" overflow="visible" fill="#3f9cd0" stroke-linecap="round" stroke-linejoin="round"/></clipPath><clipPath id="b"><rect style="isolation:auto;mix-blend-mode:normal;marker:none" width="27" height="27" x="105" y="97.362" rx="3.013" ry="3.013" color="#000" overflow="visible" fill="#3f9cd0" stroke-linecap="round" stroke-linejoin="round"/></clipPath></defs><g transform="translate(26 -95.362)" color="#000"><rect ry="3.013" rx="3.013" y="97.362" x="15" height="27" width="27" style="isolation:auto;mix-blend-mode:normal;marker:none" overflow="visible" fill="#666"/><path d="m 20,114.32109 c 0,7.43393 6.307571,8.04111 8.499996,8.04111 2.229246,0 8.500004,-0.56378 8.500004,-8.04111 0,-5.95889 -8.5,-13.95889 -8.5,-13.95889 0,0 -8.5,8 -8.5,13.95889 z" style="isolation:auto;mix-blend-mode:normal;marker:none" overflow="visible" fill="#fff"/><path d="m 33.003618,113.73922 c 0,0.76477 -0.114248,1.4526 -0.342755,2.0635 -0.228497,0.61089 -0.550262,1.13085 -0.965295,1.55986 -0.415033,0.42902 -0.914008,0.75778 -1.496916,0.98629 -0.578249,0.2285 -1.217111,0.34275 -1.916606,0.34275 l -2.891633,0 0,-9.8978 2.891633,0 c 0.699495,0 1.338357,0.11424 1.916606,0.34274 0.582908,0.22851 1.081883,0.55727 1.496916,0.98629 0.415033,0.42901 0.736798,0.94897 0.965295,1.55986 0.228507,0.61089 0.342755,1.29639 0.342755,2.05651 z" style="line-height:125%;-inkscape-font-specification:'lato Light';isolation:auto;mix-blend-mode:normal;marker:none" font-weight="300" font-family="lato" letter-spacing="0" word-spacing="0" overflow="visible" fill="none" stroke="#666" stroke-width="1.894" stroke-linecap="round" stroke-linejoin="round"/></g><g fill="#fff" color="#000" fill-opacity=".984" stroke="#666" stroke-linecap="round" stroke-linejoin="round"><path d="m 264,57.362205 33.07497,-1e-5 M 309,57.362192 c 1.76391,0 2.84505,-0.67414 2.84505,-0.67414 1.15495,-0.66681 1.58759,-2.82806 0.88842,-4.71957 0,0 -0.0371,-4.92525 -1.35186,-5.67429 -1.31477,-0.74904 -8.24304,-3.32786 -8.24304,-3.32786 0,0 -6.78532,-8.46794 -11.13857,-9.60414 -4.35324,-1.13619 -40,-1 -42,-1 -2,0 -2,2 -2,4 0,1.61283 -1,16 -1,16 0,0 0.46695,3.562994 1,4 0.22984,0.188426 1.78034,0.831447 4,1.000013" style="isolation:auto;mix-blend-mode:normal;marker:none" overflow="visible" transform="translate(-245 -12.362)"/><path d="M309.39761 45.475502L310 49.362205l2 0M312 51.362192l-64.37268-.17749M249.63915 51.814622L250 56.372322M252 54.362192l1 0m11 .000013l33-.000009m11-.000003l4.74769-.000001M248 44.362205c-1 0-1 0-1 1l0 5c0 .19861.79812 1 1 1l1 0 0-7zM288 35.362192c0 0 3.99998 0 5 1 1.00002 1 9 9 9 9 0 0-11.34231-2.42609-13-3-1.59643-.5527-1.83194-2-2-4-.16806-2 0-3 1-3zM285 34.362205l0 15m0 3.498712l0 0m0 2.99611l0 .000001M294 37.362205l0 5" style="isolation:auto;mix-blend-mode:normal;marker:none" overflow="visible" transform="translate(-245 -12.362)"/><g transform="translate(-254.733 -22.36)"><circle r="4.5" cy="67.862" cx="312.988" style="isolation:auto;mix-blend-mode:normal;marker:none" overflow="visible"/><ellipse ry="2.793" rx="2.793" style="isolation:auto;mix-blend-mode:normal;marker:none" cx="312.988" cy="67.862" overflow="visible"/></g><g transform="translate(-299.762 -22.36)"><circle style="isolation:auto;mix-blend-mode:normal;marker:none" cx="312.762" cy="67.861" r="4.5" overflow="visible"/><ellipse cy="67.861" cx="312.762" style="isolation:auto;mix-blend-mode:normal;marker:none" rx="2.793" ry="2.793" overflow="visible"/></g></g></svg>