<svg xmlns="http://www.w3.org/2000/svg" width="70" height="70" viewBox="0 0 70.000001 70.000001"><defs><clipPath id="a"><rect style="isolation:auto;mix-blend-mode:normal;marker:none" width="27" height="27" x="105" y="97.362" rx="3.013" ry="3.013" color="#000" overflow="visible" fill="#3f9cd0" stroke-linecap="round" stroke-linejoin="round"/></clipPath><clipPath id="b"><rect style="isolation:auto;mix-blend-mode:normal;marker:none" width="27" height="27" x="105" y="97.362" rx="3.013" ry="3.013" color="#000" overflow="visible" fill="#3f9cd0" stroke-linecap="round" stroke-linejoin="round"/></clipPath></defs><g color="#000"><rect style="isolation:auto;mix-blend-mode:normal;marker:none" width="27" height="27" x="41" y="2" rx="3.013" ry="3.013" overflow="visible" fill="#666"/><ellipse style="isolation:auto;mix-blend-mode:normal;marker:none" cx="54.5" cy="15.5" rx="9.5" ry="9.5" overflow="visible" fill="#fff" fill-opacity=".984"/><path d="m 51.514134,15.992622 3.01831,0 -1.525384,5.09543 4.478785,-6.42609 -2.985852,-0.0649 1.624032,-4.6850905 z" style="isolation:auto;mix-blend-mode:normal;marker:none" overflow="visible" fill="#666" stroke="#666" stroke-width=".824" stroke-linecap="round" stroke-linejoin="round"/></g><g fill="#fff" color="#000" fill-opacity=".984" stroke="#666" stroke-linecap="round" stroke-linejoin="round"><path d="m 264,57.362205 33.07497,-1e-5 M 309,57.362192 c 1.76391,0 2.84505,-0.67414 2.84505,-0.67414 1.15495,-0.66681 1.58759,-2.82806 0.88842,-4.71957 0,0 -0.0371,-4.92525 -1.35186,-5.67429 -1.31477,-0.74904 -8.24304,-3.32786 -8.24304,-3.32786 0,0 -6.78532,-8.46794 -11.13857,-9.60414 -4.35324,-1.13619 -40,-1 -42,-1 -2,0 -2,2 -2,4 0,1.61283 -1,16 -1,16 0,0 0.46695,3.562994 1,4 0.22984,0.188426 1.78034,0.831447 4,1.000013" style="isolation:auto;mix-blend-mode:normal;marker:none" overflow="visible" transform="translate(-245 -12.362)"/><path d="M309.39761 45.475502L310 49.362205l2 0M312 51.362192l-64.37268-.17749M249.63915 51.814622L250 56.372322M252 54.362192l1 0m11 .000013l33-.000009m11-.000003l4.74769-.000001M248 44.362205c-1 0-1 0-1 1l0 5c0 .19861.79812 1 1 1l1 0 0-7zM288 35.362192c0 0 3.99998 0 5 1 1.00002 1 9 9 9 9 0 0-11.34231-2.42609-13-3-1.59643-.5527-1.83194-2-2-4-.16806-2 0-3 1-3zM285 34.362205l0 15m0 3.498712l0 0m0 2.99611l0 .000001M294 37.362205l0 5" style="isolation:auto;mix-blend-mode:normal;marker:none" overflow="visible" transform="translate(-245 -12.362)"/><g transform="translate(-254.733 -22.36)"><circle r="4.5" cy="67.862" cx="312.988" style="isolation:auto;mix-blend-mode:normal;marker:none" overflow="visible"/><ellipse ry="2.793" rx="2.793" style="isolation:auto;mix-blend-mode:normal;marker:none" cx="312.988" cy="67.862" overflow="visible"/></g><g transform="translate(-299.762 -22.36)"><circle style="isolation:auto;mix-blend-mode:normal;marker:none" cx="312.762" cy="67.861" r="4.5" overflow="visible"/><ellipse cy="67.861" cx="312.762" style="isolation:auto;mix-blend-mode:normal;marker:none" rx="2.793" ry="2.793" overflow="visible"/></g></g></svg>