<svg xmlns="http://www.w3.org/2000/svg" width="70" height="70" viewBox="0 0 70.000001 70.000001"><defs><clipPath id="a"><rect style="isolation:auto;mix-blend-mode:normal;marker:none" width="27" height="27" x="105" y="97.362" rx="3.013" ry="3.013" color="#000" overflow="visible" fill="#3f9cd0" stroke-linecap="round" stroke-linejoin="round"/></clipPath><clipPath id="b"><rect style="isolation:auto;mix-blend-mode:normal;marker:none" width="27" height="27" x="105" y="97.362" rx="3.013" ry="3.013" color="#000" overflow="visible" fill="#3f9cd0" stroke-linecap="round" stroke-linejoin="round"/></clipPath></defs><g color="#000" stroke="#666" stroke-linecap="round" stroke-linejoin="round"><path style="isolation:auto;mix-blend-mode:normal;marker:none" d="M.8271484e-7 45.999998L31 46.519223M.8271484e-7 44.473084L23.092401 44.473084C27.4903 44.473084 32.8028 46.655533 35 48.37204 46.38888 48.18159 55.70773 47.736556 60.7973 46.77107 73.64337 44.334189 71.18319 41.355842 56.69719 29.442213 42.2112 17.52857 26.213651 14.999998 16.000001 14.999998l-16.00000071728516 0" overflow="visible" fill="none"/><path d="M10.000001 36.788933l0 1.161606 22.353899 0 0-1.161606zm31.679979.344204l0 1.161605c.91966.02702 1.60941.05443 1.8978.08297C49.0442 38.91924 69 41.587685 69 41.587685c0 0-19.29237-3.764329-25.42222-4.371576-.28839-.02854-.97814-.05589-1.8978-.08297zM10.000001 24.999998l0 8 13.07868 0C33.67893 33.210355 37.53488 32.758428 49.8899 34.47978l.5204-1.031074c0 0-6.83237-4.06079-12.84542-5.685377-6.01306-1.624587-8.89061-2.763331-14.486199-2.763331zM56.81831 47.280988c-2.28242.115948 1.35381 2.721945-.10342 2.721945-16.06689 0-18.03485-1.486615-18.03485-1.486615M.8271484e-7 19.663592l4.67423001728516 0c.51097 0 .92233.407513.92233.913706l0 22.995576c0 .506193-.41136.913706-.92233.913706l-4.67423001728516 0" style="isolation:auto;mix-blend-mode:normal;marker:none" overflow="visible" fill="none"/><path style="isolation:auto;mix-blend-mode:normal;marker:none" d="M.67680028 25.32601c1.28707002 0 2.32323002 1.026468 2.32323002 2.301498l0 3.249173c0 1.27503-1.03616 2.301498-2.32323002 2.301498M35.33694 17.871177c.16019 2.084496 1.42313 3.430238 2.73462 4.034591l14.09567 6.495375c1.01409.467303 2.06672.367299 2.97242-.167616M45.43818 30.837253l-1.53248 2.74389M31 26.32057l0 6.786047M25.000001 15.78415l0 28.215848M.8271484e-7 49.480773L35 49.999998l0-1M67.68737 44.486546l-43.974269 0M61.4805 33.531532c.1602 2.084483 1.42313 3.430225 2.73463 4.034578l3.10229 1.42973M19.000001 25.395222l0 7.680397M.8271484e-7 47.999998L35 48.519223" overflow="visible" fill="none"/><g transform="translate(-565 -22.362)" fill="#fff" fill-opacity=".984"><circle r="2.5" cy="70.862" cx="575" style="isolation:auto;mix-blend-mode:normal;marker:none" overflow="visible"/><circle style="isolation:auto;mix-blend-mode:normal;marker:none" cx="585.5" cy="70.862" r="2.5" overflow="visible"/><circle r="2.5" cy="70.862" cx="592.5" style="isolation:auto;mix-blend-mode:normal;marker:none" overflow="visible"/><circle r="2.5" cy="70.862" cx="568" style="isolation:auto;mix-blend-mode:normal;marker:none" overflow="visible"/></g></g></svg>