<svg xmlns="http://www.w3.org/2000/svg" width="70" height="70" viewBox="0 0 70.000001 70.000001"><defs><clipPath id="a"><rect style="isolation:auto;mix-blend-mode:normal;marker:none" width="27" height="27" x="105" y="97.362" rx="3.013" ry="3.013" color="#000" overflow="visible" fill="#3f9cd0" stroke-linecap="round" stroke-linejoin="round"/></clipPath><clipPath id="b"><rect style="isolation:auto;mix-blend-mode:normal;marker:none" width="27" height="27" x="105" y="97.362" rx="3.013" ry="3.013" color="#000" overflow="visible" fill="#3f9cd0" stroke-linecap="round" stroke-linejoin="round"/></clipPath></defs><g color="#000"><rect style="isolation:auto;mix-blend-mode:normal;marker:none" width="27" height="27" x="41" y="2" rx="3.013" ry="3.013" overflow="visible" fill="#666"/><ellipse style="isolation:auto;mix-blend-mode:normal;marker:none" cx="54.5" cy="15.5" rx="9.5" ry="9.5" overflow="visible" fill="#fff" fill-opacity=".984"/><path d="m 51.514134,15.992622 3.01831,0 -1.525384,5.09543 4.478785,-6.42609 -2.985852,-0.0649 1.624032,-4.6850905 z" style="isolation:auto;mix-blend-mode:normal;marker:none" overflow="visible" fill="#666" stroke="#666" stroke-width=".824" stroke-linecap="round" stroke-linejoin="round"/></g><g color="#000" stroke="#666" stroke-linecap="round" stroke-linejoin="round"><path d="m 153,58.443862 c 1.20998,0 4.80007,0.29734 5.42832,-0.36346 0.62826,-0.66081 0.73478,-2.65312 0.73478,-3.49345 0,-0.84034 -1.29327,-0.50115 -1.29327,-0.50115 0,0 0.86452,-3.08983 -2.72327,-4.04828 -3.36084,-0.89782 -13.82618,-1.55802 -13.82618,-1.55802 0,0 -6.606,-5.94692 -16.7633,-7.08717 -10.1573,-1.14026 -16.42241,-0.0831 -23.55708,7.05153 l -7.999999,0 0,5 -1,0 c 0,0 -0.12769,3.95499 1.6062,4.56196 1.73389,0.60698 3.92488,0.36208 7.015849,0.35637 3.09097,-0.006 51.16797,0.0817 52.37795,0.0817 z" style="isolation:auto;mix-blend-mode:normal;marker:none" overflow="visible" fill="none" transform="translate(-90 -12.362)"/><path style="isolation:auto;mix-blend-mode:normal;marker:none" d="M93.000001 50.173682c0 0 2.26795 0 2 1-.26795 1-2 2-2 2M137.95233 48.706872l-29.37661 0c0-2.53319 2.42428-5.45051 8.19595-5.53319 5.77167-.0827 13.48135 1.20359 21.18066 5.53319zM112.77406 56.362192l26.93774 0M155.65944 52.525782l-1.4765.41636.75407 1.42005 2.94047-.0895M113 43.810532l0 4.84924M123 43.950542l0 4.41165M92.440041 56.173682l6.11237 0" overflow="visible" fill="none" transform="translate(-90 -12.362)"/><g transform="translate(-186.693 -22.362)"><circle r="4.5" style="isolation:auto;mix-blend-mode:normal;marker:none" cx="202.185" cy="67.862" overflow="visible" fill="#fff" fill-opacity=".984"/><ellipse cy="67.862" cx="202.185" style="isolation:auto;mix-blend-mode:normal;marker:none" rx="2.793" ry="2.793" overflow="visible" fill="none"/></g><g transform="translate(-183.307 -22.362)"><circle r="4.5" cy="67.862" cx="240.307" style="isolation:auto;mix-blend-mode:normal;marker:none" overflow="visible" fill="#fff" fill-opacity=".984"/><ellipse ry="2.793" rx="2.793" style="isolation:auto;mix-blend-mode:normal;marker:none" cx="240.307" cy="67.862" overflow="visible" fill="none"/></g></g></svg>