<svg xmlns="http://www.w3.org/2000/svg" width="70" height="70" viewBox="0 0 70.000001 70.000001"><defs><clipPath id="a"><rect style="isolation:auto;mix-blend-mode:normal;marker:none" width="27" height="27" x="105" y="97.362" rx="3.013" ry="3.013" color="#000" overflow="visible" fill="#3f9cd0" stroke-linecap="round" stroke-linejoin="round"/></clipPath><clipPath id="b"><rect style="isolation:auto;mix-blend-mode:normal;marker:none" width="27" height="27" x="105" y="97.362" rx="3.013" ry="3.013" color="#000" overflow="visible" fill="#3f9cd0" stroke-linecap="round" stroke-linejoin="round"/></clipPath><clipPath id="c"><path style="isolation:auto;mix-blend-mode:normal;marker:none" color="#000" overflow="visible" fill="#fff" stroke-width="2" stroke-linecap="round" stroke-linejoin="round" stroke-opacity=".984" d="M155 227.362H225V297.36199999999997H155z"/></clipPath><clipPath id="d"><path style="isolation:auto;mix-blend-mode:normal;marker:none" color="#000" overflow="visible" fill="#fff" stroke-width="2" stroke-linecap="round" stroke-linejoin="round" stroke-opacity=".984" d="M255 227.362H325V297.36199999999997H255z"/></clipPath></defs><g transform="translate(-155 -227.362)" clip-path="url(#c)"><g color="#000" fill="none" stroke="#666" stroke-linecap="round" stroke-linejoin="round"><path d="M222.28912 986.73106c-8.62456 2.44249-18.58733 4.15487-24.66944 5.79583l-4.43562-.18756-4.5014 1.35809 9.18107 3.26236c.72219.63831 16.97942 1.2502 24.99857.009 8.01914-1.24154 36.98529-9.60073 43.53175-11.69937 6.54646-2.09867 12.56481-6.0068 12.18153-7.38244-.38326-1.37565-2.29599-1.24525-3.84964-1.77545-.92686-.31624-3.60337-.9332-6.71653-.96822-.17689-.002-.35513-.002-.53459 0-1.25624.0134-2.56979.12672-3.85792.39564-1.67799.3502-12.51338 3.36739-25.82356 7.11262M257.46064 984.33396l21.10329-6.47592m-71.50466 19.7715l37.83029-9.98946" style="isolation:auto;mix-blend-mode:normal;marker:none" overflow="visible" transform="translate(-55 -725)"/><g style="isolation:auto;mix-blend-mode:normal;marker:none" overflow="visible" fill-opacity=".984" stroke-width="3.059"><path d="M-721.58789 1722.6489c-.26803 2.646 4.40384 2.2722 8.58279 6.4511 6.61043 3.0837 16.44279 5.4319 27.74943 2.4023 0 0 2.35352-3.9481 2.35333-8.8534-.00018-4.9053-2.35333-8.8534-2.35333-8.8534-11.63497-3.1176-21.34348-1.0018-27.74943 1.983-4.46961 4.4696-8.31476 4.2244-8.58279 6.8704zM-713.28012 1716.0464c-2.23602 3.4658-2.04514 9.2434 0 12.7857M-685.36358 1714.3287c-.84037 4.476-.69919 12.2744.0694 16.8492" style="isolation:auto;mix-blend-mode:normal;marker:none" overflow="visible" transform="matrix(.32072 -.08265 .08662 .31091 272.235 -332.476)"/></g><path style="isolation:auto;mix-blend-mode:normal;marker:none" d="M249.1396 983.63656c-19.08016-1.66434-31.01478-2.89993-31.01478-2.89993l-9.08094 1.31952 25.42186 8.04145M249.73535 990.22497c.49187.35084 1.66759-.10364 3.0457.66866 2.38725.41241 5.74446.32962 9.10835-1.5468 0 0 .40385-.9609.10973-2.36219M251.79889 989.68377c.21921.55015.48971.77986.87094 1.14903M261.04202 987.23874c.26006.85077.52076 1.40677.80644 2.01067M272.43094 976.07342l-.48218.10778.33325.91733 2.13217-.52526M214.28973 988.46153l-20.80058-11.90643-4.15469 1.29594 10.31021 14.01463" overflow="visible" transform="translate(-55 -725)"/><path d="m 209.19127,989.26467 -14.78893,-9.25152 -2.85753,0.88864" style="isolation:auto;mix-blend-mode:normal;marker:none" overflow="visible" transform="translate(-55 -725)"/><g transform="matrix(.8882 -.20116 .21684 .88205 -74.313 74.93)" stroke-width="1.1"><rect style="isolation:auto;mix-blend-mode:normal;marker:none" width="1.056" height="1.114" x="257.115" y="260.363" rx=".299" ry=".29" overflow="visible"/><rect ry=".29" rx=".299" y="260.644" x="254.284" height="1.114" width="1.056" style="isolation:auto;mix-blend-mode:normal;marker:none" overflow="visible"/><rect style="isolation:auto;mix-blend-mode:normal;marker:none" width="1.056" height="1.114" x="251.476" y="260.836" rx=".299" ry=".29" overflow="visible"/><rect ry=".29" rx=".299" y="261.012" x="248.672" height="1.114" width="1.056" style="isolation:auto;mix-blend-mode:normal;marker:none" overflow="visible"/></g><g transform="matrix(1.45243 -.30775 .33334 1.44273 -187.266 35.304)" stroke-width=".674"><rect ry=".178" rx=".184" y="201.131" x="198.796" height=".684" width=".648" style="isolation:auto;mix-blend-mode:normal;marker:none" overflow="visible"/><rect style="isolation:auto;mix-blend-mode:normal;marker:none" width=".648" height=".684" x="197.059" y="201.303" rx=".184" ry=".178" overflow="visible"/><rect ry=".178" rx=".184" y="201.421" x="195.337" height=".684" width=".648" style="isolation:auto;mix-blend-mode:normal;marker:none" overflow="visible"/><rect style="isolation:auto;mix-blend-mode:normal;marker:none" width=".648" height=".684" x="193.617" y="201.529" rx=".184" ry=".178" overflow="visible"/><rect ry=".178" rx=".184" y="201.674" x="191.888" height=".684" width=".648" style="isolation:auto;mix-blend-mode:normal;marker:none" overflow="visible"/><rect style="isolation:auto;mix-blend-mode:normal;marker:none" width=".648" height=".684" x="190.172" y="201.764" rx=".184" ry=".178" overflow="visible"/></g></g><path style="isolation:auto;mix-blend-mode:normal;marker:none" d="m 247.50195,992.36218 c -0.83161,0 -1.50195,0.67034 -1.50195,1.50195 l 0,16.99807 c 0,0.8316 0.67034,1.5 1.50195,1.5 l 45.34375,0 1.1543,-2 1.1543,2 5.59375,0 c 0.83161,0 1.50195,-0.6684 1.50195,-1.5 l 0,-16.99807 c 0,-0.83161 -0.67034,-1.50195 -1.50195,-1.50195 l -5.59375,0 -1.1543,2 -1.1543,-2 -45.34375,0 z" color="#000" overflow="visible" fill="#f9f9f9" fill-opacity=".984" stroke="#666" stroke-linecap="round" stroke-linejoin="round" transform="translate(-75 -725)"/><path style="isolation:auto;mix-blend-mode:normal;marker:none" d="M 293.98926,994.36218 294,1010.3622" color="#000" overflow="visible" fill="none" stroke="#666" stroke-linejoin="round" stroke-dasharray="4,1" stroke-dashoffset=".9" transform="translate(-75 -725)"/><g fill="#666" font-weight="700" font-size="5.797" font-family="Oswald" letter-spacing=".885" word-spacing="0"><path d="M251 1007.0254l0-8.66322 3.35232 0 0 1.20322-1.72749 0 0 2.3584 1.22309 0 0 1.2321-1.22309 0 0 2.6663 1.72749 0 0 1.2032-3.35232 0zM255.22426 1004.133l0-2.8686c0-2.04703.95013-3.07053 2.50354-3.07053.32735 0 .61749.0482.87045.14451.25593.0929.47019.2229.64279.38986.1726.16684.31395.37216.42407.61597.11308.24392.19343.50864.24104.79419.0506.2855.0758.6.0758.9433l0 .746-1.59804 0 0-.7989c0-.1573-.003-.292-.01-.4043-.006-.1155-.0227-.2455-.049-.3899-.0238-.1476-.058-.26632-.10265-.3562-.0416-.0929-.10561-.17155-.19194-.23581-.0833-.0646-.18455-.0969-.30356-.0969-.47018 0-.8787.42671-.8787 1.28011l0 3.7395c0 .8504.40852 1.2755.8787 1.2755.13988 0 .25743-.043.35267-.1292.0953-.088.16368-.2092.20532-.3658.0416-.1605.0699-.316.0848-.4669.0149-.1539.0224-.3288.0224-.5246l0-.8904 1.58911 0 0 .7317c-.006.3305-.0316.6353-.0758.9144-.0447.2791-.1206.5503-.22766.8134-.10714.2631-.24403.486-.41067.6689-.16368.1798-.37646.324-.63833.4333-.26188.1123-.56245.1684-.9017.1684-.34818 0-.83108-.055-1.10189-.1633-.26783-.1056-.48954-.2482-.66512-.4282-.17259-.1831-.31544-.406-.42852-.6691-.11308-.2664-.19344-.5455-.24106-.8375-.0447-.292-.0671-.6127-.0671-.9624zM261 1004.1762l0-2.9118q0-3.07053 2.34796-3.07053 2.35243 0 2.35243 3.07053l0 2.8686q0 .5197-.0714.9624-.0714.438-.2455.8326-.16962.3947-.43745.6739-.26337.2743-.66957.433-.40622.1582-.92848.1582-.5178 0-.92401-.1582-.4062-.1547-.66957-.4187-.26338-.2695-.43746-.6543-.16962-.3899-.2455-.8279-.0714-.4379-.0714-.9578zm3.07556.3947l0-3.7445q0-1.28021-.7276-1.28021-.21874 0-.37049.12071-.15185.11561-.22319.32256-.0714.20194-.10265.40404-.0268.1974-.0268.4332l0 3.7445q0 1.2753.72315 1.2753.7276 0 .7276-1.2753zM267 1007.0254l0-8.66797 1.16953 0 1.7632 4.53367 0-4.53367 1.34808 0 0 8.66797-1.12489 0-1.75874-4.808 0 4.808-1.39718 0zM272.29958 1004.1762l0-2.9118q0-3.07053 2.34798-3.07053 2.35244 0 2.35244 3.07053l0 2.8686q0 .5197-.0714.9624-.0714.438-.2455.8326-.16963.3947-.43747.6739-.26335.2743-.66957.433-.40621.1582-.92846.1582-.51781 0-.92402-.1582-.40622-.1547-.66957-.4187-.26337-.2695-.43746-.6543-.16963-.3899-.2455-.8279-.0714-.4379-.0714-.9578zm3.07558.3947l0-3.7445q0-1.28021-.7276-1.28021-.21873 0-.37051.12071-.15169.11561-.22319.32256-.0714.20194-.10265.40404-.0268.1974-.0268.4332l0 3.7445q0 1.2753.72314 1.2753.72761 0 .72761-1.2753zM278.39345 1007.0254l0-8.66322 1.94621 0 .85707 5.77552.924-5.77552 1.87927 0 0 8.66322-1.1963 0-.0356-6.0931q-.13387.9386-.46869 3.0466-.33479 2.108-.4687 3.0465l-1.21417 0-.98649-6.1316-.0356 6.1316-1.20076 0zM286.21235 1007.0254l0-2.8637-1.50878-5.79952 1.53109 0 .74994 3.80702q.13829-.6256.41513-1.9011.27676-1.28025.41067-1.90592l1.48646 0-1.51324 5.79952 0 2.8637-1.57127 0z" style="line-height:150%;-inkscape-font-specification:'Oswald Bold'" transform="translate(-75 -725)"/></g></g></svg>