<svg xmlns="http://www.w3.org/2000/svg" width="70" height="70" viewBox="0 0 70.000001 70.000001"><defs><clipPath id="a"><rect style="isolation:auto;mix-blend-mode:normal;marker:none" width="27" height="27" x="105" y="97.362" rx="3.013" ry="3.013" color="#000" overflow="visible" fill="#3f9cd0" stroke-linecap="round" stroke-linejoin="round"/></clipPath><clipPath id="b"><rect style="isolation:auto;mix-blend-mode:normal;marker:none" width="27" height="27" x="105" y="97.362" rx="3.013" ry="3.013" color="#000" overflow="visible" fill="#3f9cd0" stroke-linecap="round" stroke-linejoin="round"/></clipPath></defs><g color="#000" stroke="#666" stroke-linecap="round" stroke-linejoin="round"><path style="isolation:auto;mix-blend-mode:normal;marker:none" d="m 462.00401,52.261491 c -0.92937,0.92428 -2.30708,-0.3261 -2.76196,-2.96747 0,0 -0.0534,-5.90986 -0.79912,-9.80177 -0.74575,-3.89191 -5.5834,-11.93883 -5.5834,-11.93883" overflow="visible" fill="none" transform="translate(-395 -12.362)"/><path style="isolation:auto;mix-blend-mode:normal;marker:none" d="M395 58.362205l60 0 0 1 6 0-.0233-6.589844-.0241-.29276c.36636.15873.73477.0968 1.05129-.218 0 0 .41537-3.62954-.44078-10.10056-.85614-6.47101-5.99635-14.01254-6.8525-14.52341-.42807-.25543-.89097-.27945-11.08854-.19869C433.4245 27.519701 395 27.362191 395 27.362191M451 29.362205l-56 0M399 33.362205l0 25.999986M421 33.362205l0 25.999986M443 30.362191l0 29M455 60.362191c.0733-9.30945.81292-25.0495-3.66011-32.84098" overflow="visible" fill="none" transform="translate(-395 -12.362)"/><path d="M461 59.371591l2.52007 0c.003.0006.007.001.01.002.005-.00032.009-.001.0139-.002l.0332 0 0-.009c.23994-.0949.42269-1.05057.42297-2-.00002-.95017-.18284-1.89557-.42297-1.9905l0-.01-.0471 0-2.44727 0M410 33.362205l0 25.999986M425.72626 35.362191l12.54749 0c.40234 0 .72625.32189.72625.72172l0 10.55657c0 .39983-.32391.72171-.72625.72171l-12.54749 0c-.40235 0-.72626-.32188-.72626-.72171l0-10.55657c0-.39983.32391-.72172.72626-.72172zM461 59.362205l0 2-4 0M395 47.362191l5 .000014m9 0l2 0m9 0l3 0m18 0l3 0m9 0l2 0M454.59766 27.583981c-.0697-.006-.25196-.0312-.25196-.0313 0 0 4.83628 8.04754 5.58203 11.93945.74572 3.89191.79883 9.80274.79883 9.80274.23891 1.38727.73383 2.37647 1.28321 2.88281M452.90435 31.362191l-57.90435 0" style="isolation:auto;mix-blend-mode:normal;marker:none" overflow="visible" fill="none" transform="translate(-395 -12.362)"/><g fill="#fff" fill-opacity=".984"><path style="isolation:auto;mix-blend-mode:normal;marker:none" d="M529.00586 69.361328a2.5 2.5 0 0 0-.50586 1.5 2.5 2.5 0 0 0 2.5 2.5 2.5 2.5 0 0 0 2.5-2.5 2.5 2.5 0 0 0-.50391-1.5l-3.99023 0zM534.50586 69.361328a2.5 2.5 0 0 0-.50586 1.5 2.5 2.5 0 0 0 2.5 2.5 2.5 2.5 0 0 0 2.5-2.5 2.5 2.5 0 0 0-.50391-1.5l-3.99023 0zM540.00586 69.361328a2.5 2.5 0 0 0-.50586 1.5 2.5 2.5 0 0 0 2.5 2.5 2.5 2.5 0 0 0 2.5-2.5 2.5 2.5 0 0 0-.50391-1.5l-3.99023 0zM545.50586 69.361328a2.5 2.5 0 0 0-.50586 1.5 2.5 2.5 0 0 0 2.5 2.5 2.5 2.5 0 0 0 2.5-2.5 2.5 2.5 0 0 0-.50391-1.5l-3.99023 0z" overflow="visible" transform="translate(-490 -22.362)"/></g><g fill="#fff" fill-opacity=".984"><path d="M529.00586 69.361328a2.5 2.5 0 0 0-.50586 1.5 2.5 2.5 0 0 0 2.5 2.5 2.5 2.5 0 0 0 2.5-2.5 2.5 2.5 0 0 0-.50391-1.5l-3.99023 0zM534.50586 69.361328a2.5 2.5 0 0 0-.50586 1.5 2.5 2.5 0 0 0 2.5 2.5 2.5 2.5 0 0 0 2.5-2.5 2.5 2.5 0 0 0-.50391-1.5l-3.99023 0zM540.00586 69.361328a2.5 2.5 0 0 0-.50586 1.5 2.5 2.5 0 0 0 2.5 2.5 2.5 2.5 0 0 0 2.5-2.5 2.5 2.5 0 0 0-.50391-1.5l-3.99023 0zM545.50586 69.361328a2.5 2.5 0 0 0-.50586 1.5 2.5 2.5 0 0 0 2.5 2.5 2.5 2.5 0 0 0 2.5-2.5 2.5 2.5 0 0 0-.50391-1.5l-3.99023 0z" style="isolation:auto;mix-blend-mode:normal;marker:none" overflow="visible" transform="translate(-523.272 -22.362)"/></g><path style="isolation:auto;mix-blend-mode:normal;marker:none" d="M402.5207 35.362191l3.9586 0c.13412 0 .5207.37553.5207.842l0 12.316c0 .46647-.38653.842-.5207.842l-3.9586 0c-.13411 0-.5207-.37553-.5207-.842l0-12.316c0-.46647.38653-.842.5207-.842zM413.5207 35.362191l3.9586 0c.13412 0 .5207.37553.5207.842l0 12.316c0 .46647-.38653.842-.5207.842l-3.9586 0c-.13411 0-.5207-.37553-.5207-.842l0-12.316c0-.46647.38653-.842.5207-.842zM446.52071 35.362191l3.95858 0c.13412 0 .52071.37553.52071.842l0 12.316c0 .46647-.38654.842-.52071.842l-3.95858 0c-.13411 0-.52071-.37553-.52071-.842l0-12.316c0-.46647.38654-.842.52071-.842zM395 60.362191l60 0" overflow="visible" fill="none" transform="translate(-395 -12.362)"/></g></svg>